# xmcd
#
# Track frame offsets:
#	150
#	23132
#	59222
#	89077
#	113676
#	136269
#	155429
#	191196
#	233112
#	251885
#
# Disc length: 3548 seconds
#
# Revision: 0
# Processed by: cddbd v1.5.1PL2 Copyright (c) Steve Scherf et al.
# Submitted via: EasyCDDAExtractor 9.0.0.1
#
DISCID=900dda0a
DTITLE=Reha YEPREM-TAHA - Doðum Gününüz Kutlu Olsun Efendim
DYEAR=2006
DGENRE=Þiir
TTITLE0=Senin Aþkýndan
TTITLE1=Ebruli Rüya
TTITLE2=Taif
TTITLE3=Veda Hutbesi
TTITLE4=Gri Bulut
TTITLE5=Gözlerin
TTITLE6=Bu Mektup Size Efendim
TTITLE7=Veda Busesi
TTITLE8=Yokluðunun Ardýndan
TTITLE9=Uhud
EXTD=
EXTT0=
EXTT1=
EXTT2=
EXTT3=
EXTT4=
EXTT5=
EXTT6=
EXTT7=
EXTT8=
EXTT9=
PLAYORDER=
